<svg xmlns="http://www.w3.org/2000/svg" width="210mm" height="297mm" viewBox="0 0 21000 29700" shape-rendering="geometricPrecision" text-rendering="geometricPrecision" image-rendering="optimizeQuality" fill-rule="evenodd" clip-rule="evenodd"><path d="M5436 12939c-26-25-58-41-94-47-51-7-103 10-140 47-10 11-10 27 0 38 1 0 2 0 2 1 1 0 1 1 1 2l77 76-394 394-61-61 334-334c11-10 11-27 0-37-10-11-27-11-37 0l-353 353-20 19-6 9c-1 3-2 7-2 10v196c0 15 12 27 27 27h196c7 0 14-3 19-8l451-451c64-65 64-169 0-234zm-101 6c24 3 46 14 63 32 38 37 43 94 17 137l-77-77-77-77c22-13 48-19 74-15zm-539 634v-145l73 72 72 73h-145zm129-91l394-395 61 61-394 394-61-60z"/></svg>