<svg xmlns="http://www.w3.org/2000/svg" width="210mm" height="297mm" viewBox="0 0 21000 29700" shape-rendering="geometricPrecision" text-rendering="geometricPrecision" image-rendering="optimizeQuality" fill-rule="evenodd" clip-rule="evenodd"><defs><style>.fil0{fill:#000;fill-rule:nonzero}</style></defs><g id="Layer_x0020_1"><path class="fil0" d="M1197 20680c0 15-12 27-27 27-14 0-26-12-26-27v-53c0-22-9-42-23-56h-1c-14-14-34-23-56-23H879c-22 0-42 9-56 23s-23 34-23 56v53c0 15-12 27-27 27-14 0-26-12-26-27v-53c0-36 15-69 39-93s57-39 93-39h185c37 0 70 15 94 39s39 57 39 93v53zm-146-370c0-22-9-42-23-56-14-15-34-24-56-24s-42 9-56 24l-2 1c-13 14-22 33-22 55s9 42 24 56c14 14 34 23 56 23s42-9 56-23c14-15 23-34 23-56zm14-94c24 24 39 57 39 94 0 36-15 69-39 93s-57 39-93 39c-37 0-70-15-94-39s-39-57-39-93 15-68 38-92c0-1 1-1 1-2 24-24 57-39 94-39 36 0 69 15 93 39zm185 120c0-14 11-26 26-26s26 12 26 26v159c0 15-11 26-26 26s-26-11-26-26v-159z"/><path class="fil0" d="M1355 20389c15 0 27 12 27 27 0 14-12 26-27 26h-158c-15 0-27-12-27-26 0-15 12-27 27-27h158z"/></g></svg>